<svg width="510" height="543" viewBox="0 0 510 543" fill="none" xmlns="http://www.w3.org/2000/svg">
<path d="M381.172 421.036L341.45 397.718L310.249 444.15C328.477 459.362 359.1 470.425 374.924 467.047C407.398 460.114 473.021 367.911 482.127 360.891C513.125 336.994 523.201 327.925 484.413 346.494C447.432 364.198 467.019 346.494 457.959 346.494C447.074 347.254 450.681 356.915 454.721 363.837L381.172 421.036Z" fill="url(#paint0_linear)"/>
<path d="M155.79 385.711C166.997 377.929 211.279 363.911 230.727 357.874L251.302 360.119C264.266 363.333 292.073 368.812 304.863 373.998C317.654 379.183 340.866 395.72 362.521 409.51L357.408 427.218C352.816 443.121 340.673 455.733 324.955 460.924C320.91 486.646 317.422 528.463 317.998 541.427L167.512 541.31L160.623 477.662L129.634 480.982L103.457 460.924C136.234 404.23 141.782 395.439 155.79 385.711Z" fill="url(#paint1_linear)"/>
<path d="M112.739 531.965C65.0583 525.92 96.0694 477.595 104.523 461.636C114.748 470.243 127.374 475.494 140.687 476.677L157.118 478.136L150.39 493.658L223.029 510.664L233.22 538.935C225.961 537.699 172.032 539.484 112.739 531.965Z" fill="url(#paint2_linear)"/>
<path d="M235.798 231C238.145 226.757 244.875 220.815 253.022 231H235.798Z" fill="#30235B"/>
<ellipse cx="239.71" cy="376.383" rx="25.9725" ry="18.5082" fill="#CF0606"/>
<path d="M218.429 375.388L222.059 339.239H257.404L261.464 375.388C260.045 379.645 253.345 388.281 240.939 388.281C225.126 388.281 219.442 379.645 218.429 375.388Z" fill="url(#paint3_linear)"/>
<mask id="mask0" mask-type="alpha" maskUnits="userSpaceOnUse" x="218" y="339" width="44" height="50">
<path d="M218.429 375.388L222.059 339.239H257.404L261.472 375.461C260.053 379.718 253.33 388.282 240.923 388.282C225.111 388.282 219.442 379.645 218.429 375.388Z" fill="url(#paint4_linear)"/>
</mask>
<g mask="url(#mask0)">
<path opacity="0.1" d="M270.142 340.623C238.183 380.165 220.324 348.371 211.099 343.602L217.438 316.87L255.28 312.351L270.142 340.623Z" fill="black"/>
</g>
<path d="M239.097 353.751C200.98 353.751 194.425 299.036 206.202 274.01C232.7 241.623 265.824 260.515 279.073 274.01C282.263 294.865 285.78 353.751 239.097 353.751Z" fill="url(#paint5_linear)"/>
<path d="M279.724 311.893L272.256 306.392L273.411 302.296L281.941 307.921L279.724 311.893Z" fill="#111111"/>
<path d="M201.919 310.298L209.387 304.796L208.232 300.701L199.702 306.325L201.919 310.298Z" fill="#111111"/>
<path d="M208.753 277.298C235.777 294.905 265.735 284.634 277.336 277.298C274.893 285.002 278.354 299.811 280.389 306.252C297.973 283.354 292.224 270.989 287.152 267.668C286.307 256.256 275.932 227.722 241.103 229.074C206.274 230.427 199.515 255.129 200.502 264.287C187.314 282.209 195.16 299.731 201.521 306.252C208.753 292.212 208.588 282.363 208.753 277.298Z" fill="#30235B"/>
<g filter="url(#filter0_d)">
<path d="M243.871 246.695C203.528 245.344 194.542 271.876 193.336 287.282C193.239 288.516 192.23 289.487 190.993 289.487C189.672 289.487 188.62 288.386 188.738 287.071C190.498 267.317 201.03 232.799 243.871 235.179C287.127 237.582 295.589 272.017 294.262 291.213C294.191 292.24 293.323 293.016 292.293 293.016C291.17 293.016 290.269 292.105 290.224 290.983C289.588 275.056 279 247.713 243.871 246.695Z" fill="white"/>
</g>
<g filter="url(#filter1_d)">
<rect x="295.069" y="299.316" width="5.4757" height="21.0131" rx="2.73785" transform="rotate(10.0542 295.069 299.316)" fill="#24C28A"/>
</g>
<g filter="url(#filter2_d)">
<rect x="283.305" y="285.693" width="16.8668" height="43.7733" rx="8.43338" transform="rotate(10.0542 283.305 285.693)" fill="white"/>
</g>
<g filter="url(#filter3_d)">
<rect width="5.4757" height="21.0131" rx="2.73785" transform="matrix(-0.984643 0.17458 0.17458 0.984643 186.159 299.316)" fill="#24C28A"/>
</g>
<g filter="url(#filter4_d)">
<rect width="16.8668" height="43.7733" rx="8.43338" transform="matrix(-0.984643 0.17458 0.17458 0.984643 197.77 285.693)" fill="white"/>
</g>
<mask id="mask1" mask-type="alpha" maskUnits="userSpaceOnUse" x="181" y="285" width="25" height="47">
<rect width="16.8668" height="43.7733" rx="8.43338" transform="matrix(-0.984643 0.17458 0.17458 0.984643 197.77 285.693)" fill="white"/>
</mask>
<g mask="url(#mask1)">
<rect x="189.828" y="285.693" width="21.9399" height="47.5168" transform="rotate(-10.0977 189.828 285.693)" fill="#E8E8E8"/>
</g>
<mask id="mask2" mask-type="alpha" maskUnits="userSpaceOnUse" x="275" y="285" width="25" height="47">
<rect x="283.305" y="285.693" width="16.8668" height="43.7733" rx="8.43338" transform="rotate(10.0542 283.305 285.693)" fill="white"/>
</mask>
<g mask="url(#mask2)">
<rect width="21.9399" height="47.5168" transform="matrix(-0.98451 -0.175326 -0.175326 0.98451 292.271 285.693)" fill="#E8E8E8"/>
</g>
<path opacity="0.5" d="M222.672 318.284C217.28 318.284 214.564 314.034 213.874 312.137C213.08 310.55 212.454 306.415 214.333 303.13C216.722 298.954 227.951 297.789 231.885 303.689C235.818 309.589 231.885 318.284 222.672 318.284Z" fill="#E6FCFF"/>
<path opacity="0.5" d="M258.403 318.284C263.796 318.284 266.511 314.034 267.201 312.137C267.995 310.55 268.622 306.415 266.743 303.13C264.354 298.954 253.124 297.789 249.191 303.689C245.257 309.589 249.191 318.284 258.403 318.284Z" fill="#E6FCFF"/>
<path fill-rule="evenodd" clip-rule="evenodd" d="M234.67 302.387C225.876 294.664 217.932 297.932 213.225 299.868C212.702 300.083 212.218 300.282 211.778 300.448L208.831 300.453C208.276 300.454 207.828 300.907 207.833 301.462L207.855 303.94C207.86 304.489 208.306 304.931 208.855 304.931L210.986 304.931C209.442 318.182 219.214 321.728 227.029 319.339C233.997 317.21 235.862 311.185 236.235 307.405C237.725 304.102 244.26 305.628 244.518 307.331C244.524 307.371 244.531 307.416 244.538 307.465L244.538 307.465C244.845 309.539 246.39 319.987 258.153 320.002C267.788 320.014 270.401 311.407 270.504 307.101L272.998 307.079C273.55 307.074 273.994 306.622 273.989 306.07L273.962 303.039C273.957 302.487 273.505 302.043 272.953 302.048L270.459 302.07C264.183 295.712 250.701 296.307 245.952 302.287C240.713 301.079 236.248 301.851 234.67 302.387ZM222.672 318.284C217.28 318.284 214.564 314.034 213.874 312.137C213.081 310.55 212.454 306.415 214.333 303.13C216.722 298.954 227.951 297.789 231.885 303.689C235.818 309.589 231.885 318.284 222.672 318.284ZM267.202 312.137C266.512 314.034 263.797 318.284 258.404 318.284C249.192 318.284 245.259 309.589 249.192 303.689C253.125 297.789 264.355 298.954 266.744 303.13C268.623 306.415 267.996 310.55 267.202 312.137Z" fill="#111111"/>
<path d="M164.324 536.064C164.324 535.509 164.774 535.06 165.329 535.06H319.721C320.692 535.06 321.479 535.847 321.479 536.818C321.479 539.73 319.118 542.092 316.205 542.092H170.352C167.023 542.092 164.324 539.393 164.324 536.064Z" fill="#B4B4B4"/>
<rect x="164.324" y="432.524" width="157.155" height="105.147" rx="2.94666" fill="url(#paint6_linear)"/>
<circle cx="242.901" cy="485.098" r="11.1765" fill="white"/>
<path fill-rule="evenodd" clip-rule="evenodd" d="M131.238 297.252C131.438 293.844 132.117 290.99 132.684 289.404C133.796 292.186 134.346 294.857 134.532 297.292C136.968 297.478 139.639 298.028 142.42 299.141C140.834 299.708 137.981 300.387 134.572 300.586C134.382 304.205 133.452 307.017 132.684 308.457C131.749 305.84 131.322 303.149 131.211 300.613C128.676 300.502 125.984 300.076 123.367 299.141C124.808 298.373 127.619 297.442 131.238 297.252Z" fill="url(#paint7_linear)"/>
<path fill-rule="evenodd" clip-rule="evenodd" d="M104.351 274.826C104.483 272.557 104.936 270.657 105.313 269.602C106.053 271.453 106.419 273.231 106.543 274.852C108.164 274.976 109.942 275.342 111.794 276.083C110.738 276.46 108.839 276.912 106.57 277.045C106.443 279.454 105.824 281.325 105.313 282.284C104.691 280.542 104.407 278.75 104.333 277.063C102.645 276.989 100.853 276.705 99.1115 276.083C100.07 275.572 101.942 274.952 104.351 274.826Z" fill="url(#paint8_linear)"/>
<path fill-rule="evenodd" clip-rule="evenodd" d="M61.0274 258.848C61.2267 255.439 61.9063 252.586 62.4728 251C63.5855 253.782 64.1355 256.452 64.3215 258.888C66.7571 259.074 69.4278 259.624 72.2097 260.737C70.6237 261.303 67.7702 261.983 64.3616 262.182C64.1715 265.801 63.2408 268.613 62.4728 270.053C61.5382 267.436 61.1117 264.744 61.0005 262.209C58.4652 262.098 55.7735 261.671 53.1566 260.737C54.5968 259.969 57.4085 259.038 61.0274 258.848Z" fill="url(#paint9_linear)"/>
<path fill-rule="evenodd" clip-rule="evenodd" d="M64.7364 337.189C65.0296 332.174 66.0295 327.976 66.8628 325.642C68.5 329.735 69.3092 333.664 69.5828 337.248C73.1661 337.521 77.0954 338.331 81.1881 339.968C78.8547 340.801 74.6567 341.801 69.6417 342.094C69.362 347.418 67.9928 351.555 66.8628 353.674C65.4878 349.824 64.8604 345.864 64.6967 342.134C60.9668 341.97 57.0066 341.343 53.1566 339.968C55.2754 338.838 59.4122 337.468 64.7364 337.189Z" fill="url(#paint10_linear)"/>
<circle cx="95.2053" cy="307.534" r="1.8414" fill="#2F235A"/>
<circle cx="137.463" cy="254.737" r="1.8414" fill="#FE9076"/>
<circle cx="44.8435" cy="300.224" r="1.8414" fill="#FFA400"/>
<circle cx="127.37" cy="335.934" r="1.8414" fill="#23BB86"/>
<path d="M132.951 247.052C128.788 241.334 117.061 229.121 103.457 226.011" stroke="#FE9076" stroke-width="1.60277" stroke-linecap="round"/>
<path d="M37.0741 295.288C30.9209 291.801 15.1963 285.522 1.52301 288.309" stroke="#FFA400" stroke-width="1.60277" stroke-linecap="round"/>
<path d="M121.05 341.283C117.897 344.065 110.311 351.967 105.192 361.314" stroke="#23BB86" stroke-width="1.60277" stroke-linecap="round"/>
<path fill-rule="evenodd" clip-rule="evenodd" d="M348.588 297.252C348.389 293.844 347.709 290.99 347.143 289.404C346.03 292.186 345.48 294.857 345.294 297.292C342.858 297.478 340.187 298.028 337.406 299.141C338.992 299.708 341.845 300.387 345.254 300.586C345.444 304.205 346.374 307.017 347.143 308.457C348.077 305.84 348.504 303.149 348.615 300.613C351.15 300.502 353.842 300.076 356.459 299.141C355.019 298.373 352.207 297.442 348.588 297.252Z" fill="url(#paint11_linear)"/>
<path fill-rule="evenodd" clip-rule="evenodd" d="M375.476 274.826C375.343 272.557 374.891 270.657 374.514 269.602C373.773 271.453 373.407 273.231 373.283 274.852C371.662 274.976 369.884 275.342 368.032 276.083C369.088 276.46 370.987 276.912 373.256 277.045C373.383 279.454 374.002 281.325 374.514 282.284C375.136 280.542 375.419 278.75 375.494 277.063C377.181 276.989 378.973 276.705 380.715 276.083C379.756 275.572 377.884 274.952 375.476 274.826Z" fill="url(#paint12_linear)"/>
<path fill-rule="evenodd" clip-rule="evenodd" d="M418.799 258.848C418.599 255.439 417.92 252.586 417.353 251C416.241 253.782 415.691 256.452 415.505 258.888C413.069 259.074 410.398 259.624 407.616 260.737C409.202 261.303 412.056 261.983 415.465 262.182C415.655 265.801 416.585 268.613 417.353 270.053C418.288 267.436 418.714 264.744 418.826 262.209C421.361 262.098 424.053 261.671 426.669 260.737C425.229 259.969 422.418 259.038 418.799 258.848Z" fill="url(#paint13_linear)"/>
<path fill-rule="evenodd" clip-rule="evenodd" d="M415.09 337.189C414.796 332.174 413.797 327.976 412.963 325.642C411.326 329.735 410.517 333.664 410.243 337.248C406.66 337.521 402.731 338.331 398.638 339.968C400.971 340.801 405.169 341.801 410.184 342.094C410.464 347.418 411.833 351.555 412.963 353.674C414.338 349.824 414.966 345.864 415.129 342.134C418.859 341.97 422.819 341.343 426.669 339.968C424.551 338.838 420.414 337.468 415.09 337.189Z" fill="url(#paint14_linear)"/>
<circle r="1.8414" transform="matrix(-1 0 0 1 384.621 307.534)" fill="#2F235A"/>
<circle r="1.8414" transform="matrix(-1 0 0 1 342.363 254.737)" fill="#FE9076"/>
<circle r="1.8414" transform="matrix(-1 0 0 1 434.983 300.224)" fill="#FFA400"/>
<circle r="1.8414" transform="matrix(-1 0 0 1 352.456 335.934)" fill="#23BB86"/>
<path d="M346.875 247.052C351.038 241.334 362.765 229.121 376.369 226.011" stroke="#FE9076" stroke-width="1.60277" stroke-linecap="round"/>
<path d="M442.752 295.288C448.905 291.801 464.63 285.522 478.303 288.309" stroke="#FFA400" stroke-width="1.60277" stroke-linecap="round"/>
<path d="M358.776 341.283C361.929 344.065 369.515 351.967 374.634 361.314" stroke="#23BB86" stroke-width="1.60277" stroke-linecap="round"/>
<path d="M269.949 45.4377C267.861 42.6505 263.635 44.1689 263.635 47.205C263.635 49.4849 269.429 53.0513 269.949 53.515C270.473 53.0513 275.979 49.4849 275.979 47.205C275.979 44.1919 272.041 42.6505 269.949 45.4377Z" fill="#FFBCBC"/>
<circle cx="269.807" cy="187.376" r="13.7999" stroke="#F7F7F7" stroke-width="0.649684"/>
<path d="M220.426 28.8175C218.578 26.3508 214.838 27.6946 214.838 30.3817C214.838 32.3995 219.966 35.5559 220.426 35.9664C220.89 35.5559 225.763 32.3995 225.763 30.3817C225.763 27.715 222.278 26.3508 220.426 28.8175Z" fill="#FFBCBC"/>
<circle cx="220.3" cy="167.703" r="12.2135" stroke="#F7F7F7" stroke-width="0.574998"/>
<path d="M253.109 10.6923C251.845 9.00519 249.286 9.92426 249.286 11.762C249.286 13.1421 252.794 15.3008 253.109 15.5815C253.426 15.3008 256.758 13.1421 256.758 11.762C256.758 9.93819 254.375 9.00519 253.109 10.6923Z" fill="#FFBCBC"/>
<circle cx="253.022" cy="145.658" r="8.35318" stroke="#F7F7F7" stroke-width="0.393259"/>
<path d="M195.379 1.3042C194.345 -0.0762101 192.252 0.675795 192.252 2.17953C192.252 3.30872 195.121 5.07507 195.379 5.30475C195.638 5.07507 198.365 3.30872 198.365 2.17953C198.365 0.687195 196.415 -0.0762101 195.379 1.3042Z" fill="#FFBCBC"/>
<circle cx="195.308" cy="134.373" r="6.83488" stroke="#F7F7F7" stroke-width="0.321779"/>
<path d="M190.292 66.0158C188.034 63.0018 183.464 64.6437 183.464 67.9269C183.464 70.3923 189.73 74.2489 190.292 74.7504C190.859 74.2489 196.813 70.3923 196.813 67.9269C196.813 64.6686 192.554 63.0018 190.292 66.0158Z" fill="#FFBCBC"/>
<circle cx="190.138" cy="211.5" r="14.9226" stroke="#F7F7F7" stroke-width="0.702541"/>
<defs>
<filter id="filter0_d" x="154.729" y="205.062" width="173.661" height="125.955" filterUnits="userSpaceOnUse" color-interpolation-filters="sRGB">
<feFlood flood-opacity="0" result="BackgroundImageFix"/>
<feColorMatrix in="SourceAlpha" type="matrix" values="0 0 0 0 0 0 0 0 0 0 0 0 0 0 0 0 0 0 127 0"/>
<feOffset dy="4"/>
<feGaussianBlur stdDeviation="17"/>
<feColorMatrix type="matrix" values="0 0 0 0 0.0386285 0 0 0 0 0.0648437 0 0 0 0 0.104167 0 0 0 0.13 0"/>
<feBlend mode="normal" in2="BackgroundImageFix" result="effect1_dropShadow"/>
<feBlend mode="normal" in="SourceGraphic" in2="effect1_dropShadow" result="shape"/>
</filter>
<filter id="filter1_d" x="257.401" y="269.316" width="77.0601" height="89.6463" filterUnits="userSpaceOnUse" color-interpolation-filters="sRGB">
<feFlood flood-opacity="0" result="BackgroundImageFix"/>
<feColorMatrix in="SourceAlpha" type="matrix" values="0 0 0 0 0 0 0 0 0 0 0 0 0 0 0 0 0 0 127 0"/>
<feOffset dy="4"/>
<feGaussianBlur stdDeviation="17"/>
<feColorMatrix type="matrix" values="0 0 0 0 0.0386285 0 0 0 0 0.0648437 0 0 0 0 0.104167 0 0 0 0.13 0"/>
<feBlend mode="normal" in2="BackgroundImageFix" result="effect1_dropShadow"/>
<feBlend mode="normal" in="SourceGraphic" in2="effect1_dropShadow" result="shape"/>
</filter>
<filter id="filter2_d" x="241.663" y="255.693" width="92.2497" height="114.046" filterUnits="userSpaceOnUse" color-interpolation-filters="sRGB">
<feFlood flood-opacity="0" result="BackgroundImageFix"/>
<feColorMatrix in="SourceAlpha" type="matrix" values="0 0 0 0 0 0 0 0 0 0 0 0 0 0 0 0 0 0 127 0"/>
<feOffset dy="4"/>
<feGaussianBlur stdDeviation="17"/>
<feColorMatrix type="matrix" values="0 0 0 0 0.0386285 0 0 0 0 0.0648437 0 0 0 0 0.104167 0 0 0 0.13 0"/>
<feBlend mode="normal" in2="BackgroundImageFix" result="effect1_dropShadow"/>
<feBlend mode="normal" in="SourceGraphic" in2="effect1_dropShadow" result="shape"/>
</filter>
<filter id="filter3_d" x="146.767" y="269.316" width="77.0601" height="89.6463" filterUnits="userSpaceOnUse" color-interpolation-filters="sRGB">
<feFlood flood-opacity="0" result="BackgroundImageFix"/>
<feColorMatrix in="SourceAlpha" type="matrix" values="0 0 0 0 0 0 0 0 0 0 0 0 0 0 0 0 0 0 127 0"/>
<feOffset dy="4"/>
<feGaussianBlur stdDeviation="17"/>
<feColorMatrix type="matrix" values="0 0 0 0 0.0386285 0 0 0 0 0.0648437 0 0 0 0 0.104167 0 0 0 0.13 0"/>
<feBlend mode="normal" in2="BackgroundImageFix" result="effect1_dropShadow"/>
<feBlend mode="normal" in="SourceGraphic" in2="effect1_dropShadow" result="shape"/>
</filter>
<filter id="filter4_d" x="147.163" y="255.693" width="92.2497" height="114.046" filterUnits="userSpaceOnUse" color-interpolation-filters="sRGB">
<feFlood flood-opacity="0" result="BackgroundImageFix"/>
<feColorMatrix in="SourceAlpha" type="matrix" values="0 0 0 0 0 0 0 0 0 0 0 0 0 0 0 0 0 0 127 0"/>
<feOffset dy="4"/>
<feGaussianBlur stdDeviation="17"/>
<feColorMatrix type="matrix" values="0 0 0 0 0.0386285 0 0 0 0 0.0648437 0 0 0 0 0.104167 0 0 0 0.13 0"/>
<feBlend mode="normal" in2="BackgroundImageFix" result="effect1_dropShadow"/>
<feBlend mode="normal" in="SourceGraphic" in2="effect1_dropShadow" result="shape"/>
</filter>
<linearGradient id="paint0_linear" x1="391.304" y1="285.698" x2="393.951" y2="461.566" gradientUnits="userSpaceOnUse">
<stop stop-color="#FFEFE0"/>
<stop offset="1" stop-color="#FFBE99"/>
</linearGradient>
<linearGradient id="paint1_linear" x1="242.798" y1="327.585" x2="230.398" y2="575.923" gradientUnits="userSpaceOnUse">
<stop stop-color="#FF9F81"/>
<stop offset="1" stop-color="#F53838"/>
</linearGradient>
<linearGradient id="paint2_linear" x1="227.733" y1="414.86" x2="109.061" y2="471.735" gradientUnits="userSpaceOnUse">
<stop offset="0.0677966" stop-color="#FFEFE0"/>
<stop offset="1" stop-color="#FFBE99"/>
</linearGradient>
<linearGradient id="paint3_linear" x1="238.727" y1="300.352" x2="240.807" y2="366.738" gradientUnits="userSpaceOnUse">
<stop stop-color="#FFEFE0"/>
<stop offset="1" stop-color="#FFBE99"/>
</linearGradient>
<linearGradient id="paint4_linear" x1="238.727" y1="300.352" x2="235.813" y2="375.983" gradientUnits="userSpaceOnUse">
<stop stop-color="#FFEFE0"/>
<stop offset="1" stop-color="#FFBE99"/>
</linearGradient>
<linearGradient id="paint5_linear" x1="242.184" y1="264.96" x2="242.184" y2="344.679" gradientUnits="userSpaceOnUse">
<stop stop-color="#FFEFE0"/>
<stop offset="1" stop-color="#FFBE99"/>
</linearGradient>
<linearGradient id="paint6_linear" x1="275.352" y1="353.611" x2="217.247" y2="562.106" gradientUnits="userSpaceOnUse">
<stop offset="0.0171777" stop-color="white"/>
<stop offset="1" stop-color="#D7D7D7"/>
</linearGradient>
<linearGradient id="paint7_linear" x1="132.894" y1="291.432" x2="132.894" y2="309.322" gradientUnits="userSpaceOnUse">
<stop stop-color="#FFE89E"/>
<stop offset="1" stop-color="#FFBF1A"/>
</linearGradient>
<linearGradient id="paint8_linear" x1="105.453" y1="270.952" x2="105.453" y2="282.859" gradientUnits="userSpaceOnUse">
<stop stop-color="#FFE89E"/>
<stop offset="1" stop-color="#FFBF1A"/>
</linearGradient>
<linearGradient id="paint9_linear" x1="62.6831" y1="253.028" x2="62.6831" y2="270.917" gradientUnits="userSpaceOnUse">
<stop stop-color="#FFE89E"/>
<stop offset="1" stop-color="#FFBF1A"/>
</linearGradient>
<linearGradient id="paint10_linear" x1="67.1724" y1="328.626" x2="67.1724" y2="354.946" gradientUnits="userSpaceOnUse">
<stop stop-color="#FFE89E"/>
<stop offset="1" stop-color="#FFBF1A"/>
</linearGradient>
<linearGradient id="paint11_linear" x1="346.932" y1="291.432" x2="346.932" y2="309.322" gradientUnits="userSpaceOnUse">
<stop stop-color="#FFE89E"/>
<stop offset="1" stop-color="#FFBF1A"/>
</linearGradient>
<linearGradient id="paint12_linear" x1="374.373" y1="270.952" x2="374.373" y2="282.859" gradientUnits="userSpaceOnUse">
<stop stop-color="#FFE89E"/>
<stop offset="1" stop-color="#FFBF1A"/>
</linearGradient>
<linearGradient id="paint13_linear" x1="417.143" y1="253.028" x2="417.143" y2="270.917" gradientUnits="userSpaceOnUse">
<stop stop-color="#FFE89E"/>
<stop offset="1" stop-color="#FFBF1A"/>
</linearGradient>
<linearGradient id="paint14_linear" x1="412.654" y1="328.626" x2="412.654" y2="354.946" gradientUnits="userSpaceOnUse">
<stop stop-color="#FFE89E"/>
<stop offset="1" stop-color="#FFBF1A"/>
</linearGradient>
</defs>
</svg>
